# This file uses centimeters as units for non-parametric coordinates.

mtllib c_house.mtl
g default
v 137.680728 0.231399 -41.699727
v 149.352471 0.231399 -41.699727
v 143.532799 10.210865 -47.503138
v 137.680728 0.231399 -53.371471
v 149.352471 0.231399 -53.371471
v 143.554642 5.926651 -41.699728
v 143.540184 5.949983 -53.371469
v 137.680728 3.149335 -41.699727
v 149.352471 3.149335 -41.699727
v 137.680728 6.067270 -47.535599
v 137.680728 6.067270 -47.535599
v 149.352471 6.067270 -47.535599
v 137.680728 3.149335 -53.371471
v 149.352471 3.149335 -53.371471
v 143.691115 0.231399 -41.699727
v 143.654875 0.231399 -53.371471
v 149.352471 0.231399 -47.662039
v 143.672439 0.231399 -47.714853
v 137.680728 0.231399 -47.575283
vt 0.375000 0.000000
vt 0.625000 0.000000
vt 0.375000 0.250000
vt 0.625000 0.250000
vt 0.375000 0.500000
vt 0.625000 0.500000
vt 0.375000 0.750000
vt 0.625000 0.750000
vt 0.375000 1.000000
vt 0.625000 1.000000
vt 0.875000 0.000000
vt 0.875000 0.250000
vt 0.125000 0.000000
vt 0.125000 0.250000
vt 0.513093 0.245984
vt 0.487564 0.503350
vt 0.375000 0.125000
vt 0.625000 0.125000
vt 0.291667 0.250000
vt 0.375000 0.333333
vt 0.208333 0.250000
vt 0.375000 0.416667
vt 0.625000 0.375000
vt 0.750000 0.250000
vt 0.125000 0.125000
vt 0.375000 0.625000
vt 0.625000 0.625000
vt 0.875000 0.125000
vt 0.503738 0.000000
vt 0.503738 1.000000
vt 0.502962 0.750000
vt 0.625000 0.872292
vt 0.752708 0.000000
vt 0.503338 0.871161
vt 0.249150 0.000000
vt 0.375000 0.874150
vn -0.065440 0.138403 0.988212
vn 0.000567 0.612553 0.790429
vn -0.355278 0.751399 0.556038
vn 0.496657 -0.697390 -0.516699
vn -0.000040 0.925311 -0.379209
vn 0.496657 -0.697390 -0.516699
vn -0.360640 0.754524 -0.548299
vn 0.000284 0.618382 -0.785878
vn -0.066591 0.139321 -0.988006
vn 0.000000 -1.000000 0.000000
vn 0.000000 -1.000000 0.000000
vn 0.000000 -1.000000 -0.000000
vn 0.000000 -1.000000 0.000000
vn 0.000000 -1.000000 0.000000
vn 0.000000 -1.000000 0.000000
vn 0.989028 0.132129 0.066065
vn 0.781371 0.624067 -0.000396
vn 0.538650 0.753581 0.376791
vn -0.746303 0.595337 0.297668
vn -0.988667 0.134275 0.067137
vn -0.536528 0.754791 0.377396
vn 0.000567 0.612553 0.790429
vn 0.067637 0.141198 0.987668
vn 0.359877 0.751268 0.553249
vn -0.391493 0.920178 0.002196
vn -0.000040 0.925311 -0.379209
vn -0.499683 -0.697783 -0.513240
vn -0.988586 0.134750 -0.067375
vn -0.533536 0.756486 -0.378243
vn -0.533536 0.756486 -0.378243
vn 0.781371 0.624067 -0.000396
vn 0.988555 0.134937 -0.067469
vn 0.535656 0.755287 -0.377643
vn 0.494844 -0.702879 0.510970
vn 0.000127 0.923164 0.384406
vn 0.494844 -0.702879 0.510970
vn 0.067637 0.141198 0.987668
vn 0.000567 0.612553 0.790429
vn -0.000000 0.000000 1.000000
vn 0.067637 0.141198 0.987668
vn -0.000000 0.000000 1.000000
vn -0.000000 0.000000 1.000000
vn 0.000127 0.923164 0.384406
vn -0.391493 0.920178 0.002196
vn -0.497241 -0.702365 0.509348
vn 0.068437 0.142030 -0.987494
vn 0.000284 0.618382 -0.785878
vn 0.363363 0.754102 -0.547081
vn -1.000000 0.000000 0.000000
vn -1.000000 0.000000 0.000000
vn -0.533536 0.756486 -0.378243
vn -1.000000 0.000000 0.000000
vn -0.746303 0.595337 0.297668
vn -0.533536 0.756486 -0.378243
vn 0.781371 0.624067 -0.000396
vn 1.000000 -0.000000 0.000000
vn 0.988555 0.134937 -0.067469
vn 1.000000 -0.000000 0.000000
vn 1.000000 -0.000000 0.000000
vn 0.988555 0.134937 -0.067469
vn -0.000000 0.000000 -1.000000
vn -0.000000 0.000000 -1.000000
vn 0.068437 0.142030 -0.987494
vn -0.000000 0.000000 -1.000000
vn 0.000284 0.618382 -0.785878
vn 0.068437 0.142030 -0.987494
vn -0.391493 0.920178 0.002196
vn 0.000127 0.923164 0.384406
vn 0.496657 -0.697390 -0.516699
vn 0.496657 -0.697390 -0.516699
vn -0.000040 0.925311 -0.379209
vn -0.391493 0.920178 0.002196
vn 0.496657 -0.697390 -0.516699
vn 0.000127 0.923164 0.384406
vn 0.494844 -0.702879 0.510970
vn -0.000000 0.000000 1.000000
vn -0.065440 0.138403 0.988212
vn 0.000000 0.000000 1.000000
vn -0.065440 0.138403 0.988212
vn -0.000000 0.000000 1.000000
vn 0.000567 0.612553 0.790429
vn 0.000000 -1.000000 0.000000
vn 0.000000 -1.000000 0.000000
vn 0.000000 -1.000000 0.000000
vn 0.000000 -1.000000 0.000000
vn 0.000000 -1.000000 0.000000
vn 0.000000 -1.000000 0.000000
vn -0.000000 0.000000 -1.000000
vn -0.066591 0.139321 -0.988006
vn 0.000284 0.618382 -0.785878
vn -0.000000 0.000000 -1.000000
vn 0.000000 0.000000 -1.000000
vn -0.066591 0.139321 -0.988006
vn 1.000000 -0.000000 0.000000
vn 0.989028 0.132129 0.066065
vn 1.000000 0.000000 0.000000
vn 0.989028 0.132129 0.066065
vn 1.000000 -0.000000 0.000000
vn 0.781371 0.624067 -0.000396
vn 0.000000 -1.000000 -0.000000
vn 0.000000 -1.000000 -0.000000
vn 0.000000 -1.000000 -0.000000
vn 0.000000 -1.000000 -0.000000
vn 0.000000 -1.000000 -0.000000
vn 0.000000 -1.000000 0.000000
vn 0.000000 -1.000000 -0.000000
vn 0.000000 -1.000000 0.000000
vn 0.000000 -1.000000 0.000000
vn 0.000000 -1.000000 -0.000000
vn 0.000000 -1.000000 0.000000
vn 0.000000 -1.000000 0.000000
vn -0.988667 0.134275 0.067137
vn -1.000000 0.000000 0.000000
vn -1.000000 0.000000 0.000000
vn -1.000000 0.000000 0.000000
vn -0.988667 0.134275 0.067137
vn -0.746303 0.595337 0.297668
vn -1.000000 0.000000 0.000000
vn -1.000000 0.000000 0.000000
vn -1.000000 0.000000 0.000000
s off
g c_house
usemtl c_houseSG1
f 8/17/1 6/15/2 3/3/3
f 3/3/4 6/15/5 10/20/6
f 3/5/7 7/16/8 13/26/9
f 18/34/10 5/8/11 17/32/12
f 5/8/13 18/34/14 16/31/15
f 9/18/16 12/24/17 3/4/18
f 10/19/19 8/17/20 3/3/21
f 6/15/22 9/18/23 3/4/24
f 12/23/25 6/15/26 3/4/27
f 13/25/28 11/21/29 3/14/30
f 12/24/31 14/28/32 3/12/33
f 11/22/34 7/16/35 3/5/36
f 9/18/37 6/15/38 15/29/39
f 9/18/40 15/29/41 2/2/42
f 7/16/43 12/23/44 3/6/45
f 14/27/46 7/16/47 3/6/48
f 4/13/49 19/35/50 11/21/51
f 19/35/52 10/19/53 11/21/54
f 12/24/55 17/33/56 14/28/57
f 17/33/58 5/11/59 14/28/60
f 5/8/61 16/31/62 14/27/63
f 16/31/64 7/16/65 14/27/66
f 12/23/67 7/16/68 10/20/69
f 10/20/70 6/15/71 12/23/72
f 10/20/73 7/16/74 11/22/75
f 15/29/76 8/17/77 1/1/78
f 8/17/79 15/29/80 6/15/81
f 18/34/82 19/36/83 4/7/84
f 18/34/85 4/7/86 16/31/87
f 16/31/88 13/26/89 7/16/90
f 16/31/91 4/7/92 13/26/93
f 17/33/94 9/18/95 2/2/96
f 9/18/97 17/33/98 12/24/99
f 15/30/100 17/32/101 2/10/102
f 17/32/103 15/30/104 18/34/105
f 15/30/106 1/9/107 19/36/108
f 15/30/109 19/36/110 18/34/111
f 8/17/112 19/35/113 1/1/114
f 19/35/115 8/17/116 10/19/117
f 11/21/118 13/26/119 4/13/120
