# This file uses centimeters as units for non-parametric coordinates.

mtllib groundff.mtl
g default
v -111.778687 -0.000000 110.671967
v 111.778687 -0.000000 110.671967
v -111.778687 0.000000 -110.671967
v 111.778687 0.000000 -110.671967
vt 0.000000 0.000000
vt 1.000000 0.000000
vt 0.000000 0.990099
vt 1.000000 0.990099
vn 0.000000 1.000000 0.000000
vn 0.000000 1.000000 0.000000
vn 0.000000 1.000000 0.000000
vn 0.000000 1.000000 0.000000
s 1
g groundff
usemtl initialShadingGroup
f 1/1/1 2/2/2 3/3/3
f 3/3/3 2/2/2 4/4/4
