# This file uses centimeters as units for non-parametric coordinates.

mtllib particle half of the size.mtl
g default
v -0.988563 -1.000000 0.002939
v 1.011436 -1.000000 0.002939
v -0.988563 1.000000 0.002939
v 1.011436 1.000000 0.002939
vt 0.000000 0.000000
vt 1.000000 0.000000
vt 0.000000 1.000000
vt 1.000000 1.000000
vn 0.000000 0.000000 1.000000
vn 0.000000 0.000000 1.000000
vn 0.000000 0.000000 1.000000
vn 0.000000 0.000000 1.000000
vn 0.000000 0.000000 1.000000
vn 0.000000 0.000000 1.000000
s off
g particle
usemtl initialShadingGroup
f 1/1/1 2/2/2 3/3/3
f 3/3/4 2/2/5 4/4/6
