# This file uses centimeters as units for non-parametric coordinates.

mtllib spirit.mtl
g default
v 0.062500 -0.237764 -0.045409
v 0.023873 -0.237764 -0.073473
v -0.023873 -0.237764 -0.073473
v -0.062500 -0.237764 -0.045409
v -0.077254 -0.237764 0.000000
v -0.062500 -0.237764 0.045409
v -0.023873 -0.237764 0.073473
v 0.023873 -0.237764 0.073473
v 0.062500 -0.237764 0.045409
v 0.077255 -0.237764 0.000000
v 0.118882 -0.202254 -0.086373
v 0.045409 -0.202254 -0.139754
v -0.045409 -0.202254 -0.139754
v -0.118882 -0.202254 -0.086373
v -0.146946 -0.202254 0.000000
v -0.118882 -0.202254 0.086373
v -0.045409 -0.202254 0.139754
v 0.045409 -0.202254 0.139754
v 0.118882 -0.202254 0.086373
v 0.146947 -0.202254 0.000000
v 0.163627 -0.146946 -0.118882
v 0.062500 -0.146946 -0.192355
v -0.062500 -0.146946 -0.192355
v -0.163627 -0.146946 -0.118882
v -0.202254 -0.146946 0.000000
v -0.163627 -0.146946 0.118882
v -0.062500 -0.146946 0.192355
v 0.062500 -0.146946 0.192355
v 0.163627 -0.146946 0.118882
v 0.202255 -0.146946 0.000000
v 0.192355 -0.077254 -0.139754
v 0.073473 -0.077254 -0.226127
v -0.073473 -0.077254 -0.226127
v -0.192355 -0.077254 -0.139754
v -0.237764 -0.077254 0.000000
v -0.192355 -0.077254 0.139754
v -0.073473 -0.077254 0.226127
v 0.073473 -0.077254 0.226127
v 0.192355 -0.077254 0.139754
v 0.237764 -0.077254 0.000000
v 0.202255 0.000000 -0.146946
v 0.077255 0.000000 -0.237764
v -0.077254 0.000000 -0.237764
v -0.202254 0.000000 -0.146946
v -0.250000 0.000000 0.000000
v -0.202254 0.000000 0.146946
v -0.077254 0.000000 0.237764
v 0.077255 0.000000 0.237764
v 0.202255 0.000000 0.146946
v 0.250000 0.000000 0.000000
v 0.192355 0.077254 -0.139754
v 0.073473 0.077254 -0.226127
v -0.073473 0.077254 -0.226127
v -0.192355 0.077254 -0.139754
v -0.237764 0.077254 0.000000
v -0.192355 0.077254 0.139754
v -0.073473 0.077254 0.226127
v 0.073473 0.077254 0.226127
v 0.192355 0.077254 0.139754
v 0.237764 0.077254 0.000000
v 0.163627 0.146946 -0.118882
v 0.062500 0.146946 -0.192355
v -0.062500 0.146946 -0.192355
v -0.163627 0.146946 -0.118882
v -0.202254 0.146946 0.000000
v -0.163627 0.146946 0.118882
v -0.062500 0.146946 0.192355
v 0.062500 0.146946 0.192355
v 0.163627 0.146946 0.118882
v 0.202255 0.146946 0.000000
v 0.118882 0.202254 -0.086373
v 0.045409 0.202254 -0.139754
v -0.045409 0.202254 -0.139754
v -0.118882 0.202254 -0.086373
v -0.146946 0.202254 0.000000
v -0.118882 0.202254 0.086373
v -0.045409 0.202254 0.139754
v 0.045409 0.202254 0.139754
v 0.118882 0.202254 0.086373
v 0.146947 0.202254 0.000000
v 0.062500 0.237764 -0.045409
v 0.023873 0.237764 -0.073473
v -0.023873 0.237764 -0.073473
v -0.062500 0.237764 -0.045409
v -0.077254 0.237764 0.000000
v -0.062500 0.237764 0.045409
v -0.023873 0.237764 0.073473
v 0.023873 0.237764 0.073473
v 0.062500 0.237764 0.045409
v 0.077255 0.237764 0.000000
v 0.000000 -0.250000 0.000000
v 0.000000 0.250000 0.000000
vt 0.788130 0.140622
vt 0.881471 0.233964
vt 0.788130 0.233964
vt 0.041396 0.140622
vt 0.041396 0.233964
vt 0.134737 0.140622
vt 0.134738 0.233964
vt 0.228079 0.140622
vt 0.228079 0.233964
vt 0.321421 0.140622
vt 0.321421 0.233964
vt 0.414763 0.140622
vt 0.414763 0.233964
vt 0.508104 0.140622
vt 0.508104 0.233964
vt 0.601446 0.140622
vt 0.601446 0.233964
vt 0.694788 0.140622
vt 0.694788 0.233964
vt 0.881471 0.327305
vt 0.788130 0.327306
vt 0.041396 0.327305
vt 0.134737 0.327306
vt 0.228079 0.327306
vt 0.321421 0.327305
vt 0.414763 0.327306
vt 0.508104 0.327306
vt 0.601446 0.327305
vt 0.694788 0.327306
vt 0.881471 0.420647
vt 0.788130 0.420647
vt 0.041396 0.420647
vt 0.134737 0.420647
vt 0.228079 0.420647
vt 0.321421 0.420647
vt 0.414763 0.420647
vt 0.508104 0.420647
vt 0.601446 0.420647
vt 0.694788 0.420647
vt 0.881471 0.513989
vt 0.788130 0.513989
vt 0.041396 0.513989
vt 0.134737 0.513989
vt 0.228079 0.513989
vt 0.321421 0.513989
vt 0.414763 0.513989
vt 0.508104 0.513989
vt 0.601446 0.513989
vt 0.694788 0.513989
vt 0.881471 0.607331
vt 0.788130 0.607331
vt 0.041396 0.607331
vt 0.134737 0.607331
vt 0.228079 0.607331
vt 0.321421 0.607331
vt 0.414763 0.607331
vt 0.508104 0.607331
vt 0.601446 0.607331
vt 0.694788 0.607331
vt 0.881471 0.700673
vt 0.788130 0.700672
vt 0.041396 0.700673
vt 0.134737 0.700672
vt 0.228079 0.700672
vt 0.321421 0.700672
vt 0.414763 0.700672
vt 0.508104 0.700672
vt 0.601446 0.700672
vt 0.694788 0.700672
vt 0.881471 0.794014
vt 0.788130 0.794014
vt 0.041396 0.794014
vt 0.134738 0.794014
vt 0.228079 0.794014
vt 0.321421 0.794014
vt 0.414763 0.794014
vt 0.508104 0.794014
vt 0.601446 0.794014
vt 0.694788 0.794014
vt 0.881471 0.887356
vt 0.788130 0.887356
vt 0.041396 0.887356
vt 0.134737 0.887356
vt 0.228079 0.887356
vt 0.321421 0.887356
vt 0.414763 0.887356
vt 0.508104 0.887356
vt 0.601446 0.887356
vt 0.694788 0.887356
vt 0.461419 0.047280
vt 0.461419 0.980698
vt 0.974813 0.140622
vt 0.974813 0.233964
vt 0.974813 0.327305
vt 0.974813 0.420647
vt 0.974813 0.513989
vt 0.974813 0.607331
vt 0.974813 0.700673
vt 0.974813 0.794014
vt 0.881471 0.140622
vt 0.974813 0.887356
vn 0.277578 -0.881468 -0.382053
vn 0.277578 -0.881468 -0.382053
vn 0.277578 -0.881468 -0.382053
vn 0.277578 -0.881468 -0.382053
vn 0.000000 -0.881468 -0.472244
vn 0.000000 -0.881468 -0.472244
vn 0.000000 -0.881468 -0.472244
vn 0.000000 -0.881468 -0.472244
vn -0.277578 -0.881468 -0.382053
vn -0.277578 -0.881468 -0.382053
vn -0.277578 -0.881468 -0.382053
vn -0.277578 -0.881468 -0.382053
vn -0.449130 -0.881468 -0.145931
vn -0.449130 -0.881468 -0.145931
vn -0.449130 -0.881468 -0.145931
vn -0.449130 -0.881468 -0.145931
vn -0.449130 -0.881468 0.145931
vn -0.449130 -0.881468 0.145931
vn -0.449130 -0.881468 0.145931
vn -0.449130 -0.881468 0.145931
vn -0.277578 -0.881468 0.382053
vn -0.277578 -0.881468 0.382053
vn -0.277578 -0.881468 0.382053
vn -0.277578 -0.881468 0.382053
vn 0.000000 -0.881468 0.472244
vn 0.000000 -0.881468 0.472244
vn 0.000000 -0.881468 0.472244
vn 0.000000 -0.881468 0.472244
vn 0.277578 -0.881468 0.382053
vn 0.277578 -0.881468 0.382053
vn 0.277578 -0.881468 0.382053
vn 0.277578 -0.881468 0.382053
vn 0.449130 -0.881468 0.145931
vn 0.449130 -0.881468 0.145931
vn 0.449130 -0.881468 0.145931
vn 0.449130 -0.881468 0.145931
vn 0.449130 -0.881468 -0.145931
vn 0.449130 -0.881468 -0.145931
vn 0.449130 -0.881468 -0.145931
vn 0.449130 -0.881468 -0.145931
vn 0.425919 -0.689152 -0.586228
vn 0.425919 -0.689152 -0.586228
vn 0.425919 -0.689152 -0.586228
vn 0.425919 -0.689152 -0.586228
vn 0.000000 -0.689151 -0.724618
vn 0.000000 -0.689151 -0.724618
vn 0.000000 -0.689151 -0.724618
vn 0.000000 -0.689151 -0.724618
vn -0.425919 -0.689152 -0.586228
vn -0.425919 -0.689152 -0.586228
vn -0.425919 -0.689152 -0.586228
vn -0.425919 -0.689152 -0.586228
vn -0.689152 -0.689152 -0.223919
vn -0.689152 -0.689152 -0.223919
vn -0.689152 -0.689152 -0.223919
vn -0.689152 -0.689152 -0.223919
vn -0.689152 -0.689151 0.223919
vn -0.689152 -0.689151 0.223919
vn -0.689152 -0.689151 0.223919
vn -0.689152 -0.689151 0.223919
vn -0.425919 -0.689152 0.586228
vn -0.425919 -0.689152 0.586228
vn -0.425919 -0.689152 0.586228
vn -0.425919 -0.689152 0.586228
vn 0.000000 -0.689152 0.724617
vn 0.000000 -0.689152 0.724617
vn 0.000000 -0.689152 0.724617
vn 0.000000 -0.689152 0.724617
vn 0.425920 -0.689152 0.586228
vn 0.425919 -0.689152 0.586227
vn 0.425920 -0.689152 0.586227
vn 0.425919 -0.689152 0.586228
vn 0.689152 -0.689151 0.223919
vn 0.689152 -0.689151 0.223919
vn 0.689152 -0.689151 0.223919
vn 0.689152 -0.689151 0.223919
vn 0.689152 -0.689151 -0.223919
vn 0.689152 -0.689151 -0.223919
vn 0.689152 -0.689151 -0.223919
vn 0.689152 -0.689151 -0.223919
vn 0.528951 -0.436083 -0.728040
vn 0.528951 -0.436083 -0.728040
vn 0.528951 -0.436083 -0.728040
vn 0.528951 -0.436083 -0.728040
vn 0.000000 -0.436084 -0.899906
vn 0.000000 -0.436084 -0.899906
vn 0.000000 -0.436084 -0.899906
vn 0.000000 -0.436084 -0.899906
vn -0.528951 -0.436083 -0.728040
vn -0.528951 -0.436083 -0.728040
vn -0.528951 -0.436083 -0.728040
vn -0.528952 -0.436083 -0.728040
vn -0.855861 -0.436084 -0.278087
vn -0.855861 -0.436084 -0.278087
vn -0.855861 -0.436084 -0.278087
vn -0.855861 -0.436084 -0.278087
vn -0.855861 -0.436084 0.278087
vn -0.855861 -0.436084 0.278087
vn -0.855861 -0.436084 0.278087
vn -0.855861 -0.436084 0.278087
vn -0.528952 -0.436083 0.728039
vn -0.528952 -0.436083 0.728039
vn -0.528952 -0.436083 0.728039
vn -0.528952 -0.436083 0.728039
vn 0.000000 -0.436083 0.899906
vn 0.000000 -0.436083 0.899906
vn 0.000000 -0.436083 0.899907
vn 0.000000 -0.436083 0.899907
vn 0.528952 -0.436083 0.728039
vn 0.528952 -0.436083 0.728039
vn 0.528952 -0.436083 0.728039
vn 0.528952 -0.436083 0.728039
vn 0.855862 -0.436083 0.278087
vn 0.855862 -0.436083 0.278087
vn 0.855862 -0.436083 0.278087
vn 0.855862 -0.436083 0.278087
vn 0.855862 -0.436082 -0.278087
vn 0.855862 -0.436083 -0.278087
vn 0.855862 -0.436082 -0.278087
vn 0.855862 -0.436083 -0.278087
vn 0.581228 -0.148953 -0.799992
vn 0.581228 -0.148953 -0.799992
vn 0.581228 -0.148953 -0.799992
vn 0.581228 -0.148953 -0.799992
vn 0.000000 -0.148952 -0.988844
vn 0.000000 -0.148952 -0.988844
vn 0.000000 -0.148952 -0.988844
vn 0.000000 -0.148952 -0.988844
vn -0.581228 -0.148953 -0.799992
vn -0.581228 -0.148953 -0.799992
vn -0.581228 -0.148953 -0.799992
vn -0.581228 -0.148953 -0.799992
vn -0.940447 -0.148952 -0.305570
vn -0.940447 -0.148952 -0.305570
vn -0.940447 -0.148952 -0.305570
vn -0.940447 -0.148952 -0.305570
vn -0.940447 -0.148952 0.305570
vn -0.940447 -0.148952 0.305570
vn -0.940447 -0.148952 0.305571
vn -0.940447 -0.148952 0.305570
vn -0.581228 -0.148952 0.799992
vn -0.581228 -0.148952 0.799992
vn -0.581228 -0.148952 0.799992
vn -0.581228 -0.148952 0.799992
vn 0.000000 -0.148952 0.988844
vn 0.000000 -0.148952 0.988844
vn 0.000000 -0.148952 0.988844
vn 0.000000 -0.148952 0.988844
vn 0.581228 -0.148952 0.799992
vn 0.581228 -0.148952 0.799992
vn 0.581228 -0.148952 0.799992
vn 0.581228 -0.148952 0.799992
vn 0.940447 -0.148953 0.305570
vn 0.940447 -0.148953 0.305570
vn 0.940447 -0.148953 0.305570
vn 0.940447 -0.148953 0.305570
vn 0.940447 -0.148953 -0.305570
vn 0.940447 -0.148953 -0.305570
vn 0.940447 -0.148953 -0.305570
vn 0.940447 -0.148953 -0.305570
vn 0.581228 0.148953 -0.799992
vn 0.581228 0.148953 -0.799992
vn 0.581228 0.148953 -0.799992
vn 0.581228 0.148953 -0.799992
vn 0.000000 0.148952 -0.988844
vn 0.000000 0.148952 -0.988844
vn 0.000000 0.148952 -0.988844
vn 0.000000 0.148952 -0.988844
vn -0.581228 0.148953 -0.799992
vn -0.581228 0.148953 -0.799992
vn -0.581228 0.148953 -0.799992
vn -0.581228 0.148953 -0.799992
vn -0.940447 0.148952 -0.305570
vn -0.940447 0.148952 -0.305570
vn -0.940447 0.148952 -0.305570
vn -0.940447 0.148952 -0.305570
vn -0.940447 0.148952 0.305570
vn -0.940447 0.148952 0.305571
vn -0.940447 0.148952 0.305570
vn -0.940447 0.148952 0.305570
vn -0.581228 0.148952 0.799992
vn -0.581228 0.148952 0.799992
vn -0.581228 0.148952 0.799992
vn -0.581228 0.148952 0.799992
vn 0.000000 0.148952 0.988844
vn 0.000000 0.148952 0.988844
vn 0.000000 0.148952 0.988844
vn 0.000000 0.148952 0.988844
vn 0.581228 0.148952 0.799992
vn 0.581228 0.148952 0.799992
vn 0.581228 0.148952 0.799992
vn 0.581228 0.148952 0.799992
vn 0.940447 0.148953 0.305570
vn 0.940447 0.148953 0.305570
vn 0.940447 0.148953 0.305570
vn 0.940447 0.148953 0.305570
vn 0.940447 0.148953 -0.305570
vn 0.940447 0.148953 -0.305570
vn 0.940447 0.148953 -0.305570
vn 0.940447 0.148953 -0.305570
vn 0.528951 0.436083 -0.728040
vn 0.528951 0.436083 -0.728040
vn 0.528951 0.436083 -0.728040
vn 0.528951 0.436083 -0.728040
vn 0.000000 0.436084 -0.899906
vn 0.000000 0.436084 -0.899906
vn 0.000000 0.436084 -0.899906
vn 0.000000 0.436084 -0.899906
vn -0.528951 0.436083 -0.728040
vn -0.528951 0.436083 -0.728040
vn -0.528951 0.436083 -0.728040
vn -0.528951 0.436083 -0.728040
vn -0.855861 0.436084 -0.278087
vn -0.855861 0.436084 -0.278087
vn -0.855861 0.436084 -0.278087
vn -0.855861 0.436084 -0.278087
vn -0.855861 0.436084 0.278087
vn -0.855861 0.436084 0.278087
vn -0.855861 0.436084 0.278087
vn -0.855861 0.436084 0.278087
vn -0.528952 0.436083 0.728039
vn -0.528952 0.436083 0.728039
vn -0.528952 0.436083 0.728039
vn -0.528952 0.436083 0.728039
vn 0.000000 0.436083 0.899907
vn 0.000000 0.436083 0.899907
vn 0.000000 0.436083 0.899906
vn 0.000000 0.436083 0.899906
vn 0.528952 0.436083 0.728039
vn 0.528952 0.436083 0.728039
vn 0.528952 0.436083 0.728039
vn 0.528952 0.436083 0.728039
vn 0.855862 0.436083 0.278087
vn 0.855862 0.436083 0.278087
vn 0.855862 0.436083 0.278087
vn 0.855862 0.436083 0.278087
vn 0.855862 0.436083 -0.278087
vn 0.855862 0.436082 -0.278087
vn 0.855862 0.436082 -0.278087
vn 0.855862 0.436082 -0.278087
vn 0.425919 0.689152 -0.586228
vn 0.425919 0.689152 -0.586228
vn 0.425919 0.689152 -0.586228
vn 0.425919 0.689152 -0.586228
vn 0.000000 0.689151 -0.724618
vn 0.000000 0.689151 -0.724618
vn 0.000000 0.689151 -0.724618
vn 0.000000 0.689151 -0.724618
vn -0.425919 0.689152 -0.586228
vn -0.425919 0.689152 -0.586228
vn -0.425919 0.689152 -0.586228
vn -0.425919 0.689152 -0.586228
vn -0.689152 0.689152 -0.223919
vn -0.689152 0.689152 -0.223919
vn -0.689152 0.689152 -0.223919
vn -0.689152 0.689152 -0.223919
vn -0.689152 0.689151 0.223919
vn -0.689152 0.689151 0.223919
vn -0.689152 0.689151 0.223919
vn -0.689152 0.689151 0.223919
vn -0.425919 0.689152 0.586228
vn -0.425919 0.689152 0.586228
vn -0.425919 0.689152 0.586228
vn -0.425919 0.689152 0.586228
vn 0.000000 0.689152 0.724617
vn 0.000000 0.689152 0.724617
vn 0.000000 0.689152 0.724617
vn 0.000000 0.689152 0.724617
vn 0.425919 0.689152 0.586228
vn 0.425920 0.689152 0.586228
vn 0.425919 0.689152 0.586228
vn 0.425919 0.689152 0.586228
vn 0.689152 0.689151 0.223919
vn 0.689152 0.689151 0.223919
vn 0.689152 0.689151 0.223919
vn 0.689152 0.689151 0.223919
vn 0.689152 0.689151 -0.223919
vn 0.689152 0.689151 -0.223919
vn 0.689152 0.689151 -0.223919
vn 0.689152 0.689151 -0.223919
vn 0.277578 0.881468 -0.382053
vn 0.277578 0.881468 -0.382053
vn 0.277578 0.881468 -0.382053
vn 0.277578 0.881468 -0.382053
vn 0.000000 0.881468 -0.472244
vn 0.000000 0.881468 -0.472244
vn 0.000000 0.881468 -0.472244
vn 0.000000 0.881468 -0.472244
vn -0.277578 0.881468 -0.382053
vn -0.277578 0.881468 -0.382053
vn -0.277578 0.881468 -0.382053
vn -0.277578 0.881468 -0.382053
vn -0.449130 0.881468 -0.145931
vn -0.449130 0.881468 -0.145931
vn -0.449130 0.881468 -0.145931
vn -0.449130 0.881468 -0.145931
vn -0.449130 0.881468 0.145931
vn -0.449130 0.881468 0.145931
vn -0.449130 0.881468 0.145931
vn -0.449130 0.881468 0.145931
vn -0.277578 0.881468 0.382053
vn -0.277578 0.881468 0.382053
vn -0.277578 0.881468 0.382053
vn -0.277578 0.881468 0.382053
vn 0.000000 0.881468 0.472244
vn 0.000000 0.881468 0.472244
vn 0.000000 0.881468 0.472244
vn 0.000000 0.881468 0.472244
vn 0.277578 0.881468 0.382053
vn 0.277578 0.881468 0.382053
vn 0.277578 0.881468 0.382053
vn 0.277578 0.881468 0.382053
vn 0.449130 0.881468 0.145931
vn 0.449130 0.881468 0.145931
vn 0.449130 0.881468 0.145931
vn 0.449130 0.881468 0.145931
vn 0.449130 0.881468 -0.145931
vn 0.449130 0.881468 -0.145931
vn 0.449130 0.881468 -0.145931
vn 0.449130 0.881468 -0.145931
vn 0.096557 -0.986415 -0.132900
vn 0.096557 -0.986415 -0.132900
vn 0.096557 -0.986415 -0.132899
vn 0.000000 -0.986415 -0.164273
vn 0.000000 -0.986415 -0.164273
vn 0.000000 -0.986415 -0.164272
vn -0.096557 -0.986415 -0.132900
vn -0.096557 -0.986415 -0.132900
vn -0.096557 -0.986415 -0.132900
vn -0.156233 -0.986415 -0.050763
vn -0.156233 -0.986415 -0.050763
vn -0.156233 -0.986415 -0.050763
vn -0.156233 -0.986415 0.050763
vn -0.156233 -0.986415 0.050763
vn -0.156233 -0.986415 0.050763
vn -0.096557 -0.986415 0.132900
vn -0.096557 -0.986415 0.132900
vn -0.096557 -0.986415 0.132900
vn 0.000000 -0.986415 0.164273
vn 0.000000 -0.986415 0.164273
vn 0.000000 -0.986415 0.164272
vn 0.096557 -0.986415 0.132900
vn 0.096557 -0.986415 0.132900
vn 0.096557 -0.986415 0.132899
vn 0.156233 -0.986415 0.050763
vn 0.156233 -0.986415 0.050763
vn 0.156233 -0.986415 0.050763
vn 0.156233 -0.986415 -0.050763
vn 0.156233 -0.986415 -0.050763
vn 0.156233 -0.986415 -0.050763
vn 0.096557 0.986415 -0.132900
vn 0.096557 0.986415 -0.132900
vn 0.096557 0.986415 -0.132899
vn 0.000000 0.986415 -0.164273
vn 0.000000 0.986415 -0.164273
vn 0.000000 0.986415 -0.164272
vn -0.096557 0.986415 -0.132900
vn -0.096557 0.986415 -0.132900
vn -0.096557 0.986415 -0.132900
vn -0.156233 0.986415 -0.050763
vn -0.156233 0.986415 -0.050763
vn -0.156233 0.986415 -0.050763
vn -0.156233 0.986415 0.050763
vn -0.156233 0.986415 0.050763
vn -0.156233 0.986415 0.050763
vn -0.096557 0.986415 0.132900
vn -0.096557 0.986415 0.132900
vn -0.096557 0.986415 0.132900
vn 0.000000 0.986415 0.164273
vn 0.000000 0.986415 0.164273
vn 0.000000 0.986415 0.164272
vn 0.096557 0.986415 0.132900
vn 0.096557 0.986415 0.132900
vn 0.096557 0.986415 0.132899
vn 0.156233 0.986415 0.050763
vn 0.156233 0.986415 0.050763
vn 0.156233 0.986415 0.050763
vn 0.156233 0.986415 -0.050763
vn 0.156233 0.986415 -0.050763
vn 0.156233 0.986415 -0.050763
s off
g spirit
usemtl initialShadingGroup
f 1/1/1 2/100/2 12/2/3 11/3/4
f 2/100/5 3/92/6 13/93/7 12/2/8
f 3/4/9 4/6/10 14/7/11 13/5/12
f 4/6/13 5/8/14 15/9/15 14/7/16
f 5/8/17 6/10/18 16/11/19 15/9/20
f 6/10/21 7/12/22 17/13/23 16/11/24
f 7/12/25 8/14/26 18/15/27 17/13/28
f 8/14/29 9/16/30 19/17/31 18/15/32
f 9/16/33 10/18/34 20/19/35 19/17/36
f 10/18/37 1/1/38 11/3/39 20/19/40
f 11/3/41 12/2/42 22/20/43 21/21/44
f 12/2/45 13/93/46 23/94/47 22/20/48
f 13/5/49 14/7/50 24/23/51 23/22/52
f 14/7/53 15/9/54 25/24/55 24/23/56
f 15/9/57 16/11/58 26/25/59 25/24/60
f 16/11/61 17/13/62 27/26/63 26/25/64
f 17/13/65 18/15/66 28/27/67 27/26/68
f 18/15/69 19/17/70 29/28/71 28/27/72
f 19/17/73 20/19/74 30/29/75 29/28/76
f 20/19/77 11/3/78 21/21/79 30/29/80
f 21/21/81 22/20/82 32/30/83 31/31/84
f 22/20/85 23/94/86 33/95/87 32/30/88
f 23/22/89 24/23/90 34/33/91 33/32/92
f 24/23/93 25/24/94 35/34/95 34/33/96
f 25/24/97 26/25/98 36/35/99 35/34/100
f 26/25/101 27/26/102 37/36/103 36/35/104
f 27/26/105 28/27/106 38/37/107 37/36/108
f 28/27/109 29/28/110 39/38/111 38/37/112
f 29/28/113 30/29/114 40/39/115 39/38/116
f 30/29/117 21/21/118 31/31/119 40/39/120
f 31/31/121 32/30/122 42/40/123 41/41/124
f 32/30/125 33/95/126 43/96/127 42/40/128
f 33/32/129 34/33/130 44/43/131 43/42/132
f 34/33/133 35/34/134 45/44/135 44/43/136
f 35/34/137 36/35/138 46/45/139 45/44/140
f 36/35/141 37/36/142 47/46/143 46/45/144
f 37/36/145 38/37/146 48/47/147 47/46/148
f 38/37/149 39/38/150 49/48/151 48/47/152
f 39/38/153 40/39/154 50/49/155 49/48/156
f 40/39/157 31/31/158 41/41/159 50/49/160
f 41/41/161 42/40/162 52/50/163 51/51/164
f 42/40/165 43/96/166 53/97/167 52/50/168
f 43/42/169 44/43/170 54/53/171 53/52/172
f 44/43/173 45/44/174 55/54/175 54/53/176
f 45/44/177 46/45/178 56/55/179 55/54/180
f 46/45/181 47/46/182 57/56/183 56/55/184
f 47/46/185 48/47/186 58/57/187 57/56/188
f 48/47/189 49/48/190 59/58/191 58/57/192
f 49/48/193 50/49/194 60/59/195 59/58/196
f 50/49/197 41/41/198 51/51/199 60/59/200
f 51/51/201 52/50/202 62/60/203 61/61/204
f 52/50/205 53/97/206 63/98/207 62/60/208
f 53/52/209 54/53/210 64/63/211 63/62/212
f 54/53/213 55/54/214 65/64/215 64/63/216
f 55/54/217 56/55/218 66/65/219 65/64/220
f 56/55/221 57/56/222 67/66/223 66/65/224
f 57/56/225 58/57/226 68/67/227 67/66/228
f 58/57/229 59/58/230 69/68/231 68/67/232
f 59/58/233 60/59/234 70/69/235 69/68/236
f 60/59/237 51/51/238 61/61/239 70/69/240
f 61/61/241 62/60/242 72/70/243 71/71/244
f 62/60/245 63/98/246 73/99/247 72/70/248
f 63/62/249 64/63/250 74/73/251 73/72/252
f 64/63/253 65/64/254 75/74/255 74/73/256
f 65/64/257 66/65/258 76/75/259 75/74/260
f 66/65/261 67/66/262 77/76/263 76/75/264
f 67/66/265 68/67/266 78/77/267 77/76/268
f 68/67/269 69/68/270 79/78/271 78/77/272
f 69/68/273 70/69/274 80/79/275 79/78/276
f 70/69/277 61/61/278 71/71/279 80/79/280
f 71/71/281 72/70/282 82/80/283 81/81/284
f 72/70/285 73/99/286 83/101/287 82/80/288
f 73/72/289 74/73/290 84/83/291 83/82/292
f 74/73/293 75/74/294 85/84/295 84/83/296
f 75/74/297 76/75/298 86/85/299 85/84/300
f 76/75/301 77/76/302 87/86/303 86/85/304
f 77/76/305 78/77/306 88/87/307 87/86/308
f 78/77/309 79/78/310 89/88/311 88/87/312
f 79/78/313 80/79/314 90/89/315 89/88/316
f 80/79/317 71/71/318 81/81/319 90/89/320
f 2/100/321 1/1/322 91/90/323
f 3/92/324 2/100/325 91/90/326
f 4/6/327 3/4/328 91/90/329
f 5/8/330 4/6/331 91/90/332
f 6/10/333 5/8/334 91/90/335
f 7/12/336 6/10/337 91/90/338
f 8/14/339 7/12/340 91/90/341
f 9/16/342 8/14/343 91/90/344
f 10/18/345 9/16/346 91/90/347
f 1/1/348 10/18/349 91/90/350
f 81/81/351 82/80/352 92/91/353
f 82/80/354 83/101/355 92/91/356
f 83/82/357 84/83/358 92/91/359
f 84/83/360 85/84/361 92/91/362
f 85/84/363 86/85/364 92/91/365
f 86/85/366 87/86/367 92/91/368
f 87/86/369 88/87/370 92/91/371
f 88/87/372 89/88/373 92/91/374
f 89/88/375 90/89/376 92/91/377
f 90/89/378 81/81/379 92/91/380
