# This file uses centimeters as units for non-parametric coordinates.

mtllib watervv.mtl
g default
v -98.249191 -0.656747 99.043365
v 99.041656 -0.656747 99.043365
v -98.249191 -0.656747 -98.481323
v 99.041656 -0.656747 -98.481323
vt 0.952821 0.047179
vt 0.952821 0.952821
vt 0.047179 0.047179
vt 0.047179 0.952821
vn 0.000000 1.000000 0.000000
vn 0.000000 1.000000 0.000000
vn 0.000000 1.000000 0.000000
vn 0.000000 1.000000 0.000000
s 1
g watervv
usemtl Water_v1SG1
f 1/3/1 2/1/2 3/4/3
f 3/4/3 2/1/2 4/2/4
